HIERARCHY
ROOT root
{
	OFFSET 0.000000 0.000000 0.000000
	CHANNELS 6 Xposition Yposition Zposition Zrotation Yrotation Xrotation
	JOINT lhip
	{
		OFFSET 0.058581 -0.082280 -0.017664
		CHANNELS 3 Zrotation Yrotation Xrotation
		JOINT lknee
		{
			OFFSET 0.043451 -0.386469 0.008037
			CHANNELS 3 Zrotation Yrotation Xrotation
			JOINT lankle
			{
				OFFSET -0.014790 -0.426874 -0.037428
				CHANNELS 3 Zrotation Yrotation Xrotation
				JOINT ltoe
				{
					OFFSET 0.041054 -0.060286 0.122042
					CHANNELS 3 Zrotation Yrotation Xrotation
					End Site
					{
						OFFSET 0.000000 0.000000 0.000000
					}
				}
			}
		}
	}
	JOINT rhip
	{
		OFFSET -0.060310 -0.090513 -0.013543
		CHANNELS 3 Zrotation Yrotation Xrotation
		JOINT rknee
		{
			OFFSET -0.043257 -0.383688 -0.004843
			CHANNELS 3 Zrotation Yrotation Xrotation
			JOINT rankle
			{
				OFFSET 0.019056 -0.420046 -0.034562
				CHANNELS 3 Zrotation Yrotation Xrotation
				JOINT rtoe
				{
					OFFSET -0.034840 -0.062106 0.130323
					CHANNELS 3 Zrotation Yrotation Xrotation
					End Site
					{
						OFFSET 0.000000 0.000000 0.000000
					}
				}
			}
		}
	}
	JOINT lowerback
	{
		OFFSET 0.004439 0.124404 -0.038385
		CHANNELS 3 Zrotation Yrotation Xrotation
		JOINT upperback
		{
			OFFSET 0.004488 0.137956 0.026820
			CHANNELS 3 Zrotation Yrotation Xrotation
			JOINT chest
			{
				OFFSET -0.002265 0.056032 0.002855
				CHANNELS 3 Zrotation Yrotation Xrotation
				JOINT lowerneck
				{
					OFFSET -0.013390 0.211636 -0.033468
					CHANNELS 3 Zrotation Yrotation Xrotation
					JOINT upperneck
					{
						OFFSET 0.010113 0.088937 0.050410
						CHANNELS 3 Zrotation Yrotation Xrotation
						End Site
						{
							OFFSET 0.000000 0.000000 0.000000
						}
					}
				}
				JOINT lclavicle
				{
					OFFSET 0.071702 0.114000 -0.018898
					CHANNELS 3 Zrotation Yrotation Xrotation
					JOINT lshoulder
					{
						OFFSET 0.122921 0.045205 -0.019046
						CHANNELS 3 Zrotation Yrotation Xrotation
						JOINT lelbow
						{
							OFFSET 0.255332 -0.015649 -0.022946
							CHANNELS 3 Zrotation Yrotation Xrotation
							JOINT lwrist
							{
								OFFSET 0.265709 0.012698 -0.007375
								CHANNELS 3 Zrotation Yrotation Xrotation
								End Site
								{
									OFFSET 0.000000 0.000000 0.000000
								}
							}
						}
					}
				}
				JOINT rclavicle
				{
					OFFSET -0.082954 0.112472 -0.023707
					CHANNELS 3 Zrotation Yrotation Xrotation
					JOINT rshoulder
					{
						OFFSET -0.113228 0.046853 -0.008472
						CHANNELS 3 Zrotation Yrotation Xrotation
						JOINT relbow
						{
							OFFSET -0.260127 -0.014369 -0.031269
							CHANNELS 3 Zrotation Yrotation Xrotation
							JOINT rwrist
							{
								OFFSET -0.269108 0.006794 -0.006027
								CHANNELS 3 Zrotation Yrotation Xrotation
								End Site
								{
									OFFSET 0.000000 0.000000 0.000000
								}
							}
						}
					}
				}
			}
		}
	}
}
MOTION
Frames: 13
Frame Time: 0.033333
0.719032 1.731992 0.949477 -101.489323 -2.072900 92.963469 1.196099 -8.163704 -37.014918 -5.079990 9.556135 20.173938 8.052416 12.307020 -4.847381 0.000000 -0.000000 0.000000 -1.545717 -4.226439 10.862557 4.260075 2.214922 20.669218 5.134260 -7.258397 -17.785957 0.000000 -0.000000 0.000000 -0.867038 7.559169 12.491195 -0.211501 -1.941335 -6.358506 -0.723538 2.412790 0.361530 -0.756469 11.033334 5.348831 -1.768127 6.892733 9.885040 -23.154766 5.004872 0.302166 -52.723694 -3.433414 5.305796 13.528790 -19.988750 -0.520109 1.756701 -2.053847 -7.718342 22.885414 -0.543447 3.962904 55.434616 6.466888 14.913084 -8.983018 23.051198 1.210145 1.186185 2.072871 -6.320395 
0.685491 1.731504 0.954108 -100.851248 -2.263525 92.472365 -0.106522 -8.341493 -35.221146 -5.715080 8.526289 22.584772 9.383991 12.696599 -7.170119 0.000000 -0.000000 0.000000 -2.685843 -4.128021 10.403641 4.867245 1.822180 26.149683 6.809824 -6.615274 -11.626905 0.000000 -0.000000 0.000000 -0.651489 7.170525 11.965466 -0.011714 -1.907285 -6.326940 -0.854337 2.203078 0.740831 -0.772535 10.507730 5.184535 -2.015476 7.615202 10.936926 -23.483058 4.838903 0.523632 -52.217903 -3.651765 5.246706 13.112760 -20.593960 -0.293271 1.056300 -2.258971 -7.429291 22.907524 -0.792525 3.799738 55.184191 6.051452 14.807715 -9.425952 22.651281 0.043760 1.610499 2.061793 -6.169887 
0.652878 1.730986 0.960541 -99.944245 -2.633203 91.731708 -2.473102 -7.790250 -31.196866 -5.928273 6.662492 21.743232 11.138750 12.769918 -9.172654 0.000000 -0.000000 0.000000 -4.483379 -4.030542 8.226611 5.743344 0.038389 34.305529 8.152532 -6.073960 -2.978963 0.000000 -0.000000 0.000000 -0.809532 6.220742 11.877992 0.283196 -1.684017 -6.306216 -0.850566 1.925548 0.889775 -0.537220 9.746277 5.603798 -2.455615 8.518232 11.666881 -23.443633 4.807893 0.676941 -51.904361 -4.152150 5.193965 12.643794 -20.650684 -0.072979 0.013293 -2.849440 -7.377189 23.040599 -1.270208 3.524577 54.992944 6.206694 14.673412 -10.216132 21.868460 -1.676912 2.033381 2.248646 -5.724587 
0.621696 1.731153 0.967170 -99.119096 -2.931633 90.866793 -4.392137 -6.929782 -26.448280 -6.277882 4.560630 19.722692 12.314941 12.703517 -10.778318 0.000000 -0.000000 0.000000 -6.090208 -3.988104 4.467894 5.953544 -2.075083 44.064642 8.924846 -6.398084 5.517210 0.000000 -0.000000 0.000000 -1.333515 5.064160 11.878196 0.730766 -1.229959 -5.873989 -0.584337 1.697849 0.810063 -0.339969 9.022993 6.210618 -2.791317 9.204184 11.768269 -23.412521 4.506176 0.908560 -51.486493 -4.792543 5.018990 12.119777 -20.600939 0.044970 -1.159927 -3.040714 -6.950129 23.093506 -1.535105 3.284913 54.771654 6.470601 14.347511 -11.140116 21.357878 -3.817600 2.603478 2.330297 -5.410646 
0.591853 1.731586 0.972727 -98.491516 -3.067206 89.715828 -6.115319 -6.505206 -21.353166 -6.209130 2.248646 17.182779 13.295889 13.914802 -11.597773 0.000000 -0.000000 0.000000 -7.524786 -3.694132 0.097305 5.533508 -4.637072 53.437951 8.183954 -7.728012 12.453016 0.000000 -0.000000 0.000000 -1.488510 3.637651 12.379516 0.948331 -0.785441 -5.507232 -0.412989 1.456513 0.845715 -0.225103 8.637511 6.727761 -3.066203 10.002514 11.622919 -23.173239 4.207120 1.288323 -51.228601 -5.321910 4.816873 12.531137 -21.284617 -0.289440 -2.087983 -2.522155 -6.492678 23.029634 -1.268849 2.989638 54.793811 6.605876 14.334267 -11.885682 21.102079 -5.538621 3.060935 2.237652 -4.988010 
0.565175 1.733663 0.976391 -97.996097 -2.787495 88.521450 -6.850284 -5.616314 -17.275800 -6.321991 -0.051638 16.058879 13.172691 14.797553 -12.921809 0.000000 -0.000000 0.000000 -8.417765 -3.603771 -5.017795 3.141022 -7.958774 61.605662 7.482301 -10.380300 10.102766 0.000000 -0.000000 0.000000 -1.280785 2.196676 13.780453 1.110975 -0.235762 -5.803511 -0.246399 1.047251 1.083266 0.122147 9.032181 6.484425 -3.571971 10.167815 11.982441 -23.024685 3.794365 1.477385 -50.885440 -6.000654 4.485805 12.923944 -22.521382 -1.437712 -2.312734 -2.304938 -6.514507 23.001644 -0.749305 2.616893 54.697764 6.710093 14.200361 -12.396073 21.359775 -7.590179 3.371338 2.430656 -5.367993 
0.541292 1.736255 0.979353 -97.547187 -2.501798 87.777387 -7.527160 -4.617485 -13.948748 -5.870892 -2.008735 15.106345 12.687164 15.408665 -14.251310 0.000000 -0.000000 0.000000 -8.564503 -3.537846 -11.266562 0.653805 -10.207026 67.266514 6.534822 -12.065694 3.012596 0.000000 -0.000000 0.000000 -0.977147 0.819484 15.278841 1.066464 0.362312 -6.282693 -0.262645 0.679927 1.078855 0.689125 9.829933 6.007162 -4.067954 9.694040 12.554399 -22.750949 3.400797 1.287093 -50.319095 -6.754646 4.362749 13.243817 -23.724784 -2.098544 -1.986386 -2.259316 -6.284519 23.309094 -0.407182 2.361982 54.410957 6.665919 14.001307 -12.470989 22.086444 -8.509391 3.311465 2.713764 -5.377814 
0.517653 1.739380 0.982130 -97.046709 -2.203506 87.130890 -7.631162 -3.011868 -10.681594 -5.953407 -4.018064 13.957484 11.712679 15.415318 -15.361796 0.000000 -0.000000 0.000000 -8.337114 -3.236062 -17.346102 -0.514195 -11.852686 69.194350 6.400637 -11.972677 -4.787530 0.000000 -0.000000 0.000000 -0.755025 -0.507067 16.605411 0.974667 0.898548 -6.558650 -0.229119 0.333620 0.918354 1.150108 10.880642 5.964099 -4.407370 9.029719 12.780772 -22.602858 2.968976 0.992842 -49.763618 -7.451698 4.182930 13.752173 -25.061383 -3.239053 -1.054863 -2.318071 -5.549686 23.596115 -0.199833 2.142113 54.227334 6.460327 13.652565 -12.371971 22.857144 -8.472638 3.140374 2.830994 -4.779627 
0.494094 1.743224 0.984371 -96.577935 -1.863641 86.616293 -7.363346 -1.481130 -7.320854 -5.962575 -6.021185 12.274932 10.752051 15.463792 -16.287979 0.000000 -0.000000 0.000000 -7.821137 -2.692434 -22.993521 -0.664557 -13.258150 67.335410 6.704917 -11.631225 -9.480189 0.000000 -0.000000 0.000000 -0.781502 -1.846591 17.572350 0.976901 1.391425 -6.756920 -0.032022 0.208978 0.926294 1.444591 11.557322 6.018938 -4.596490 8.344108 12.799944 -22.436685 2.806707 0.708103 -49.509736 -8.356507 4.132119 14.407933 -26.675837 -4.396974 -0.299360 -2.358175 -5.073968 23.689988 -0.128476 2.154795 54.237717 6.400944 13.542234 -12.277007 23.176236 -8.141925 3.113968 2.783645 -4.164340 
0.469868 1.747148 0.985822 -96.139237 -1.663962 86.121845 -6.841151 0.395355 -4.178321 -6.412998 -7.993900 11.198097 9.686706 14.991168 -17.483372 0.000000 -0.000000 0.000000 -7.365413 -2.374472 -27.601535 -0.759876 -14.224105 62.375683 7.314533 -11.735405 -11.954636 0.000000 -0.000000 0.000000 -0.772330 -2.968355 18.429827 0.695758 1.852033 -7.137514 0.183213 -0.175216 1.226829 1.293707 12.051654 5.548044 -4.496667 8.570336 12.905296 -22.157524 3.058913 0.276676 -49.711166 -9.254686 4.123814 15.051969 -28.614194 -5.296625 1.515604 -2.709638 -4.382846 23.747408 -0.005146 1.970646 54.172089 6.060670 13.541240 -11.820925 23.276698 -7.760183 2.586641 2.897118 -3.667255 
0.445723 1.751593 0.986573 -95.686610 -1.275271 85.883021 -6.577653 1.248277 -0.997388 -5.509473 -9.385818 9.356940 9.229105 15.567332 -18.901746 0.000000 -0.000000 0.000000 -6.860980 -1.735828 -31.015207 -0.655504 -15.102784 54.319157 7.726518 -12.087189 -12.507104 0.000000 -0.000000 0.000000 -0.744322 -3.939555 18.864142 0.543031 2.155674 -7.544273 0.461641 -0.257623 1.605849 1.409724 12.130511 5.245180 -4.209604 8.268857 13.176846 -21.880293 3.130073 0.234127 -49.735564 -10.185344 4.526064 15.259615 -30.350819 -5.587735 2.272516 -3.540681 -4.455435 23.841741 -0.107742 2.004319 54.015182 5.619770 13.724247 -11.558484 23.205631 -7.580742 2.105360 3.009110 -3.644734 
0.421117 1.756396 0.986640 -95.077496 -0.928023 85.763402 -5.910526 2.434967 1.837693 -5.104940 -10.510006 8.074441 8.386234 14.939592 -19.933407 0.000000 -0.000000 0.000000 -6.380545 -1.585234 -32.795962 -0.133627 -15.464347 43.369796 8.277839 -11.563345 -11.692665 0.000000 -0.000000 0.000000 -0.235974 -4.519150 19.164699 0.144954 2.322527 -7.663272 0.626424 -0.657659 1.548179 0.925052 12.219793 5.007891 -3.886287 8.608177 13.322781 -21.632067 3.183644 0.100031 -49.920761 -10.978961 4.841223 15.151727 -31.794082 -4.901014 2.517127 -4.761594 -4.429244 23.629367 -0.484203 2.010649 54.181045 5.080624 13.679333 -11.166117 22.997918 -7.014780 1.798026 3.151993 -3.680491 
0.396580 1.762328 0.985464 -94.305774 -0.617611 86.276068 -4.931699 3.280044 3.909568 -5.012626 -11.469505 6.782760 7.263027 14.249282 -20.509529 0.000000 -0.000000 0.000000 -5.690347 -1.329631 -33.664565 1.587620 -13.901510 30.404855 8.983825 -9.824197 -11.217594 0.000000 -0.000000 0.000000 -0.279109 -4.890759 18.696977 0.006987 2.203684 -7.618859 0.888823 -0.503857 1.152880 1.055610 12.437647 5.153007 -3.248579 8.232706 13.577519 -20.957814 3.215332 -0.223877 -50.441750 -11.547821 5.902265 14.242815 -32.785426 -3.234851 3.218331 -5.423622 -3.456198 23.754657 -1.304686 2.260795 54.125148 4.636558 13.264717 -10.878518 22.528633 -6.057363 1.612718 2.944771 -3.340089 
